<?xml version="1.0" encoding="UTF-8"?>
<svg id="Layer_1" data-name="Layer 1" xmlns="http://www.w3.org/2000/svg" viewBox="0 0 137.55 133.84">
  <defs>
    <style>
      .cls-1 {
        fill: #e38490;
      }

      .cls-2 {
        fill: #e2818e;
      }

      .cls-3 {
        fill: #e28797;
      }

      .cls-4 {
        fill: #e28695;
      }

      .cls-5 {
        fill: #e28493;
      }

      .cls-6 {
        fill: #e37d86;
      }

      .cls-7 {
        fill: #de8aa6;
      }

      .cls-8 {
        fill: #e3777d;
      }

      .cls-9 {
        fill: #e3838e;
      }

      .cls-10 {
        fill: #e1757f;
      }

      .cls-11 {
        fill: #e18595;
      }

      .cls-12 {
        fill: #e28595;
      }

      .cls-13 {
        fill: #e28696;
      }

      .cls-14 {
        fill: #e2767d;
      }

      .cls-15 {
        fill: #e2808d;
      }

      .cls-16 {
        fill: #e08598;
      }

      .cls-17 {
        fill: #e28796;
      }

      .cls-18 {
        fill: #e1737b;
      }
    </style>
  </defs>
  <path class="cls-7" d="M1.69,46.94C2.73,35.37,5.89,12.23,14.05,3.73,17.81-.19,23.56-1.14,28.33,1.45c12.66,6.87,14.06,35.03,23.32,46.76.5.63,2.19,2.45,2.85,2.68,1.07.38,1.67-.69,2.54-1.16,5.41-7.11,10.73-14.32,16.89-20.79,1.35-1.09,2.55-2.29,3.6-3.6,9.11-8.38,18.71-13.87,29.52-4.32,1.79,2.07,3.71,3.99,5.76,5.76,10.85,11.27,39.89,44.03,14.8,55.24-9.33,4.17-25.39,2.64-35.56,1.64-15.52-1.53-30.86-4.49-46.44-5.52-2.48-.09-4.96-.13-7.44,0-4.64.43-10.85,1.42-13.92,5.28-.43.2-.51-.04-.24-.72,4.9-7.09,17.46-7.88,25.44-8.16,1.43.18,2.89.22,4.32,0,1.99-.03,4.01,0,6,0,1.75.2,3.53.2,5.28,0,2.33.01,4.62.23,6.96.24,2.66.29,5.74.29,8.4,0,2.32,0,4.64.02,6.96,0,2.27.23,4.51.23,6.72,0,1.38-.03,2.71-.19,4.08-.24.78.2,1.62.22,2.4,0,1.92-.1,3.85-.3,5.76-.48.45.18.93.18,1.44,0,3.95-.75,14.62-1.29,17-4.72,1.46-2.1-.15-6.05-1.12-8.17-4.07-8.88-11.06-15.45-16.6-23.12-.36-.56-.76-.96-1.2-1.2-.69-.73-1.27-1.4-1.92-2.16-1.42-1.62-2.94-3.14-4.56-4.56-2.14-1.54-3.14-2.35-5.89-1.45-8.4,2.73-22.74,23.28-28.91,30.61-4.7,5.58-14.29,17.77-21.12,7.69-6.3-9.29-10.76-20.38-16.6-29.96l-3.31-6.89c-1.69,8.49-2.67,17.17-3.36,25.8-1.33,16.57-.9,33.7-2.89,50.15-1.13,9.38-6.54,18.66-9.14,27.71-.07.05-.61.05-.68,0-.27-.17-2.01-5.3-2.24-6.04-2.54-8.17-3.84-18.51-4.5-27.06.17-.37.17-.77,0-1.2-.32-1.74-.37-3.95-.48-5.76.19-.54.21-1.14,0-1.68-.18-3.7-.25-7.32-.24-11.04.2-1.43.19-2.89,0-4.32.03-1.61.18-3.19.24-4.8.22-.78.19-1.62,0-2.4.11-2.68.1-5.8.48-8.4.18-.59.18-1.15,0-1.68.17-3.36.31-8.07.96-11.28.17-.43.17-.83,0-1.2Z"/>
  <path class="cls-16" d="M112.81,26.78c-.1.48-.61-.25-.72-.36-1.36-1.36-2.72-2.72-4.08-4.08l-.96-1.32c2.04,1.81,3.87,3.8,5.76,5.76Z"/>
  <path class="cls-13" d="M24.25,83.42c-.34.42-.59.93-.92,1.36l-1,2.24c-.08-1.72.78-3.02,1.68-4.32l.24.72Z"/>
  <path class="cls-4" d="M103.93,34.7l-4.56-4.56c2.07,1.49,2.98,2.72,4.56,4.56Z"/>
  <path class="cls-12" d="M80.41,74.78c-.25.4-.91.24-1.32.24-1.92.02-3.85.02-5.77,0-.41,0-1.07.15-1.32-.24,2.8,0,5.6,0,8.4,0Z"/>
  <path class="cls-11" d="M73.93,28.94c1.19-1.25,2.33-2.43,3.6-3.6.48.1-.25.61-.36.72-.64.64-1.28,1.28-1.92,1.92l-1.32.96Z"/>
  <path class="cls-3" d="M45.61,78.14h-7.44c2.81-.26,4.68-.18,7.44,0Z"/>
  <path class="cls-4" d="M94.09,74.78c-.25.4-.91.24-1.32.24-1.73.02-3.75.18-5.4-.24,2.24-.02,4.49.05,6.72,0Z"/>
  <path class="cls-1" d="M65.05,74.54c-1.55.4-3.73.4-5.28,0,1.76,0,3.52,0,5.28,0Z"/>
  <path class="cls-5" d="M53.77,74.54c-1.2.4-3.1.4-4.32,0,1.43-.05,2.88.02,4.32,0Z"/>
  <path class="cls-17" d="M.01,81.02c0-1.44-.03-2.88,0-4.32.4,1.2.4,3.1,0,4.32Z"/>
  <path class="cls-15" d="M107.05,38.06c-.57-.24-.83-.81-1.2-1.2l.12-.24c.63.32.8,1.05,1.08,1.44Z"/>
  <path class="cls-8" d="M.25,71.9c.03-.8-.03-1.6,0-2.4.41.53.4,1.91,0,2.4Z"/>
  <path class="cls-9" d="M100.57,74.54c-.53.41-1.91.4-2.4,0,.8-.03,1.61.04,2.4,0Z"/>
  <path class="cls-18" d="M.73,61.1c.02-.56-.03-1.12,0-1.68.66.48.06,1.3,0,1.68Z"/>
  <path class="cls-14" d="M.25,93.74c-.03-.56.03-1.12,0-1.68.4.3.4,1.38,0,1.68Z"/>
  <path class="cls-2" d="M107.77,74.06c-.32.06-1.02.64-1.44,0,.47-.05.97.03,1.44,0Z"/>
  <path class="cls-10" d="M1.69,48.14c.02-.4-.04-.81,0-1.2.63.35.05.97,0,1.2Z"/>
  <path class="cls-6" d="M.73,100.7c-.03-.4.02-.8,0-1.2.04.24.63.86,0,1.2Z"/>
</svg>